<svg xmlns="http://www.w3.org/2000/svg" width="22" height="22" viewBox="0 0 41.51 45.825">
 <defs>
    <style>
      .menu_icon {
        fill:#fff;
      }
    </style>
  </defs>
  <path id="accounts" class="menu_icon" d="M44.018,1641.01a.9.9,0,1,1,0-1.79H74.042a.928.928,0,0,0,.956-.895V1603.24a.958.958,0,0,1,1.912,0v35.086a2.784,2.784,0,0,1-2.868,2.685Zm-.006-3.575a.9.9,0,1,1,0-1.789h26.2a.929.929,0,0,0,.957-.9v-35.085a.958.958,0,0,1,1.912,0v35.085a2.785,2.785,0,0,1-2.869,2.685Zm-4.5-.262a.856.856,0,0,1,0-1.266,1,1,0,0,1,1.352,0,.854.854,0,0,1,0,1.266,1,1,0,0,1-1.352,0Zm-1.242-3.324a2.784,2.784,0,0,1-2.868-2.685v-16.618a.958.958,0,0,1,1.913,0v16.618a.928.928,0,0,0,.956.895H66.38a.928.928,0,0,0,.957-.895v-33.295a.929.929,0,0,0-.957-.9H38.269a.928.928,0,0,0-.956.9V1607a.958.958,0,0,1-1.913,0v-9.129a2.784,2.784,0,0,1,2.868-2.686H66.38a2.784,2.784,0,0,1,2.868,2.686v33.295a2.784,2.784,0,0,1-2.868,2.685Zm4.975-6.484-1.859-1.739a.855.855,0,0,1,0-1.265,1,1,0,0,1,1.353,0l1.182,1.106,2.542-2.379a1,1,0,0,1,1.353,0,.855.855,0,0,1,0,1.265l-3.218,3.011a1,1,0,0,1-1.352,0Zm9.081-1.3a.9.9,0,1,1,0-1.79H63.48a.9.9,0,1,1,0,1.79Zm-9.081-5.531-1.859-1.739a.856.856,0,0,1,0-1.266,1,1,0,0,1,1.353,0l1.182,1.107,2.542-2.38a1,1,0,0,1,1.353,0,.855.855,0,0,1,0,1.265l-3.218,3.012a1,1,0,0,1-1.352,0Zm9.081-1.271a.9.9,0,1,1,0-1.79H63.48a.9.9,0,1,1,0,1.79Zm3.92-7.07a.9.9,0,1,1,0-1.79h6.692a.9.9,0,1,1,0,1.79Zm-14.534,0a.928.928,0,0,1-.957-.895V1602.7a.927.927,0,0,1,.957-.895h9.179a.926.926,0,0,1,.956.895v8.593a.927.927,0,0,1-.956.895Zm.956-1.79h7.267v-6.8H42.667Zm-6.987,1.239a.856.856,0,0,1,0-1.266,1.006,1.006,0,0,1,1.352,0,.854.854,0,0,1,0,1.266,1,1,0,0,1-1.352,0Zm20.565-3.746a.9.9,0,1,1,0-1.789h6.692a.9.9,0,1,1,0,1.789Zm0-4.3a.9.9,0,1,1,0-1.79h6.692a.9.9,0,1,1,0,1.79Z" transform="translate(-35.401 -1595.185)"/>
</svg>
