<svg xmlns="http://www.w3.org/2000/svg" width="22" height="22" viewBox="0 0 47.917 47.908">
<style>
      .menu_icon {
        fill:#fff;
      }
    </style>
    <path id="cities" class="menu_icon" d="M32.048,612.03a.8.8,0,0,1,0-1.6h2.4v-8.066a3.993,3.993,0,1,1,1.6,0v8.066h17.57v-3.275a3.993,3.993,0,1,1,1.6,0v3.275H75.173v-4.9a3.195,3.195,0,1,1,1.6,0v4.9h1.6a.8.8,0,1,1,0,1.6Zm19.966-8.783a2.4,2.4,0,1,0,2.4-2.4A2.4,2.4,0,0,0,52.014,603.247Zm22.361-.8a1.6,1.6,0,1,0,1.6-1.6A1.6,1.6,0,0,0,74.375,602.448Zm-41.528-3.992a2.4,2.4,0,1,0,2.4-2.4A2.4,2.4,0,0,0,32.847,598.456ZM63.19,608.04v-3.19a.8.8,0,1,1,1.6,0v3.19a.8.8,0,0,1-1.6,0Zm-15.97,0v-3.19a.8.8,0,1,1,1.6,0v3.19a.8.8,0,1,1-1.6,0Zm-6.39,0v-3.19a.8.8,0,1,1,1.6,0v3.19a.8.8,0,1,1-1.6,0Zm-3.19,0v-3.19a.8.8,0,1,1,1.6,0v3.19a.8.8,0,0,1-1.6,0Zm31.944,0v-3.194a.8.8,0,0,1,1.6,0v3.194a.8.8,0,1,1-1.6,0Zm-3.195,0V583.11l-11.181-2.794v16.543a.8.8,0,1,1-1.6,0V579.292a.8.8,0,0,1,.993-.774l12.777,3.194a.8.8,0,0,1,.6.774v25.551a.8.8,0,0,1-1.6,0Zm-6.388,0v-3.194a.8.8,0,0,1,1.6,0v3.194a.8.8,0,1,1-1.6,0Zm-15.973,0V588.075H36.041v3.992a.8.8,0,0,1-1.6,0v-4.791a.8.8,0,0,1,.8-.8h9.583a.8.8,0,0,1,.8.8v20.76a.8.8,0,0,1-1.6,0Zm25.556-6.387v-1.6a.8.8,0,0,1,1.6,0v1.6a.8.8,0,0,1-1.6,0Zm-6.389,0v-1.6a.8.8,0,0,1,1.6,0v1.6a.8.8,0,0,1-1.6,0Zm-3.194,0v-1.6a.8.8,0,0,1,1.6,0v1.6a.8.8,0,0,1-1.6,0Zm-12.778,0v-1.6a.8.8,0,0,1,1.6,0v1.6a.8.8,0,0,1-1.6,0Zm-6.389,0v-1.6a.8.8,0,0,1,1.6,0v1.6a.8.8,0,0,1-1.6,0Zm35.139-4.792v-8.23l-5.871-2.2a.8.8,0,0,1-.517-.748v-13.35l-7.987,2V577.7a.8.8,0,0,1-1.6,0V573.7a.8.8,0,0,1,.6-.775l8.979-2.244v-.974a.8.8,0,0,1,1.6,0v15.416l5.871,2.2a.8.8,0,0,1,.518.748v8.783a.8.8,0,1,1-1.6,0Zm-6.388,0v-1.6a.8.8,0,1,1,1.6,0v1.6a.8.8,0,1,1-1.6,0Zm-6.389,0v-1.6a.8.8,0,0,1,1.6,0v1.6a.8.8,0,1,1-1.6,0Zm-3.194,0v-1.6a.8.8,0,1,1,1.6,0v1.6a.8.8,0,1,1-1.6,0Zm-12.778,0v-1.6a.8.8,0,1,1,1.6,0v1.6a.8.8,0,1,1-1.6,0Zm-6.389,0v-1.6a.8.8,0,0,1,1.6,0v1.6a.8.8,0,1,1-1.6,0Zm31.947-.008v-1.59a.8.8,0,1,1,1.6,0v1.59a.8.8,0,1,1-1.6,0Zm-15.971,0v-1.59a.8.8,0,1,1,1.6,0v1.59a.8.8,0,0,1-1.6,0Zm-6.39,0v-1.59a.8.8,0,1,1,1.6,0v1.59a.8.8,0,0,1-1.6,0Zm22.358-4.783v-1.6a.8.8,0,0,1,1.6,0v1.6a.8.8,0,0,1-1.6,0Zm-3.194,0v-1.6a.8.8,0,1,1,1.6,0v1.6a.8.8,0,1,1-1.6,0Zm-6.389,0v-1.6a.8.8,0,0,1,1.6,0v1.6a.8.8,0,0,1-1.6,0Zm-3.194,0v-1.6a.8.8,0,1,1,1.6,0v1.6a.8.8,0,1,1-1.6,0Zm-3.195,0v-1.6a.8.8,0,0,1,1.6,0v1.6a.8.8,0,0,1-1.6,0Zm-6.389,0v-1.6a.8.8,0,0,1,1.6,0v1.6a.8.8,0,0,1-1.6,0Zm-3.194,0v-1.6a.8.8,0,1,1,1.6,0v1.6a.8.8,0,1,1-1.6,0Zm-6.389,0v-1.6a.8.8,0,0,1,1.6,0v1.6a.8.8,0,0,1-1.6,0Zm-3.193-.008V590.47a.8.8,0,1,1,1.6,0v1.589a.8.8,0,1,1-1.6,0Zm25.555-4.783v-1.6a.8.8,0,0,1,1.6,0v1.6a.8.8,0,0,1-1.6,0Zm-3.194,0v-1.6a.8.8,0,0,1,1.6,0v1.6a.8.8,0,0,1-1.6,0Zm-3.195,0v-1.6a.8.8,0,0,1,1.6,0v1.6a.8.8,0,0,1-1.6,0Zm-6.389,0v-1.6a.8.8,0,0,1,1.6,0v1.6a.8.8,0,0,1-1.6,0Zm-3.194,0v-1.6a.8.8,0,0,1,1.6,0v1.6a.8.8,0,0,1-1.6,0Zm-6.389-3.194V577.7a.8.8,0,0,1,.442-.715l2.753-1.376v-6.692a.8.8,0,0,1,.441-.715l4.35-2.174v-1.1a.8.8,0,0,1,1.6,0v1.1l4.351,2.174a.8.8,0,0,1,.441.715V576.1a.8.8,0,1,1-1.6,0v-6.692l-3.993-2-3.993,2V576.1a.8.8,0,0,1-.442.715l-2.752,1.375v5.895a.8.8,0,1,1-1.6,0Zm9.583-1.6v-1.6a.8.8,0,1,1,1.6,0v1.6a.8.8,0,0,1-1.6,0Zm-3.194,0v-1.6a.8.8,0,1,1,1.6,0v1.6a.8.8,0,0,1-1.6,0Zm-3.192-.006v-1.59a.8.8,0,1,1,1.6,0v1.59a.8.8,0,0,1-1.6,0ZM66.389,577.7v-1.6a.8.8,0,0,1,1.6,0v1.6a.8.8,0,0,1-1.6,0Zm-3.194,0v-1.6a.8.8,0,0,1,1.6,0v1.6a.8.8,0,0,1-1.6,0Zm-12.778,0v-1.6a.8.8,0,0,1,1.6,0v1.6a.8.8,0,0,1-1.6,0Zm-3.194,0v-1.6a.8.8,0,0,1,1.6,0v1.6a.8.8,0,0,1-1.6,0Zm3.194-4.791v-1.6a.8.8,0,1,1,1.6,0v1.6a.8.8,0,0,1-1.6,0Zm-3.194,0v-1.6a.8.8,0,1,1,1.6,0v1.6a.8.8,0,0,1-1.6,0Z" transform="translate(-31.25 -564.122)"/>
</svg>
