<svg xmlns="http://www.w3.org/2000/svg" width="22" height="22" viewBox="0 0 45.788 35.405">
<style>
      .menu_icon {
        fill: #fff;
      }
    </style>
   <path id="cuisines" class="menu_icon" d="M36.976,709.922a3.63,3.63,0,0,1-3.614-3.638.725.725,0,0,1,.723-.727H35.3a21.114,21.114,0,0,1,8.547-16.282.71.71,0,0,1,.428-.141.728.728,0,0,1,.428,1.313,19.639,19.639,0,0,0-7.957,15.11H75.762a19.632,19.632,0,0,0-12.51-17.616,19.368,19.368,0,0,0-6.88-1.3.726.726,0,0,1-.117.01.685.685,0,0,1-.114-.01,19.533,19.533,0,0,0-4.7.6,19.31,19.31,0,0,0-4.377,1.708.732.732,0,0,1-.341.086.721.721,0,0,1-.638-.384.73.73,0,0,1,.3-.985A20.738,20.738,0,0,1,55.49,685.2l-2.142-2.155a2.442,2.442,0,0,1,0-3.44,2.409,2.409,0,0,1,2.907-.393,2.409,2.409,0,0,1,2.907.393,2.446,2.446,0,0,1,0,3.44L57.02,685.2a20.768,20.768,0,0,1,12.17,4.478,21.093,21.093,0,0,1,8.018,15.876h1.218a.726.726,0,0,1,.724.727,3.631,3.631,0,0,1-3.615,3.638Zm0-1.455H75.534a2.173,2.173,0,0,0,2.045-1.455H34.931A2.174,2.174,0,0,0,36.976,708.466Zm17.4-27.83a.98.98,0,0,0,0,1.382l1.885,1.9,1.885-1.9a.984.984,0,0,0,0-1.382.967.967,0,0,0-1.373,0,.719.719,0,0,1-1.022,0,.967.967,0,0,0-1.373,0Zm20.586,8.624a8.3,8.3,0,0,1-1.2-2.549,5.1,5.1,0,0,1,1.271-5.192c2.408-2.422.034-5.7-.068-5.84a.732.732,0,0,1,.148-1.018.719.719,0,0,1,1.011.146,8.335,8.335,0,0,1,1.2,2.549,5.1,5.1,0,0,1-1.271,5.192c-2.407,2.422-.034,5.7.068,5.84a.732.732,0,0,1-.148,1.018.718.718,0,0,1-1.01-.146Zm-38.415.145a.73.73,0,0,1-.145-1.018c.1-.138,2.474-3.417.068-5.839a5.1,5.1,0,0,1-1.271-5.192,8.335,8.335,0,0,1,1.2-2.549.72.72,0,0,1,1.013-.145.731.731,0,0,1,.146,1.017c-.1.138-2.476,3.418-.068,5.84a5.1,5.1,0,0,1,1.271,5.192,8.3,8.3,0,0,1-1.2,2.549.718.718,0,0,1-.579.291A.709.709,0,0,1,36.542,689.405Zm30.767-5.866a4.151,4.151,0,0,1-.9-1.508,3.252,3.252,0,0,1,.9-3.423,1.776,1.776,0,0,0,.562-1.884,2.714,2.714,0,0,0-.564-.97.732.732,0,0,1,.008-1.027.717.717,0,0,1,1.017,0,4.114,4.114,0,0,1,.9,1.5,3.233,3.233,0,0,1-.9,3.412,1.792,1.792,0,0,0-.56,1.9,2.791,2.791,0,0,0,.566.984.732.732,0,0,1-.013,1.027.721.721,0,0,1-.506.208A.714.714,0,0,1,67.308,683.539Zm-23.129.007a.731.731,0,0,1-.009-1.027,2.771,2.771,0,0,0,.566-.983,1.793,1.793,0,0,0-.561-1.9,3.234,3.234,0,0,1-.9-3.412,4.118,4.118,0,0,1,.9-1.5.721.721,0,0,1,1.022,0,.73.73,0,0,1,0,1.029,2.713,2.713,0,0,0-.56.968,1.775,1.775,0,0,0,.56,1.884,3.251,3.251,0,0,1,.9,3.423,4.165,4.165,0,0,1-.9,1.508.722.722,0,0,1-1.022.007Z" transform="translate(-33.361 -674.516)"/>
</svg>
