<svg xmlns="http://www.w3.org/2000/svg" width="22" height="22" viewBox="0 0 47.917 47.908">
<style>
      .menu_icon {
        fill: #fff;
      }
    </style>
   <path id="menus" class="menu_icon" d="M77.216,821.434V776.451H33.2v44.007H71.3a.975.975,0,0,1,0,1.95H32.225a.975.975,0,0,1-.975-.975V775.475a.975.975,0,0,1,.975-.975H78.191a.976.976,0,0,1,.976.975v45.958a.975.975,0,0,1-1.95,0ZM38.208,808.529a3.738,3.738,0,1,1,3.738,3.737A3.741,3.741,0,0,1,38.208,808.529Zm1.95,0a1.788,1.788,0,1,0,1.787-1.787A1.79,1.79,0,0,0,40.158,808.529Zm8.451.975a.975.975,0,1,1,0-1.949H71.361a.975.975,0,1,1,0,1.949Zm-10.4-11.049a.975.975,0,0,1,1.95,0,1.788,1.788,0,1,0,1.787-1.786.975.975,0,0,1,0-1.95,3.737,3.737,0,1,1-3.738,3.737Zm10.4.976a.975.975,0,0,1,0-1.95H71.361a.975.975,0,1,1,0,1.95Zm-10.4-11.049a3.738,3.738,0,1,1,3.738,3.737A3.741,3.741,0,0,1,38.208,788.38Zm1.95,0a1.788,1.788,0,1,0,1.787-1.787A1.789,1.789,0,0,0,40.158,788.38Zm8.451.975a.975.975,0,0,1,0-1.95H71.361a.975.975,0,1,1,0,1.95Z" transform="translate(-31.25 -774.5)"/>
</svg>
