<svg xmlns="http://www.w3.org/2000/svg" width="22" height="22" viewBox="0 0 45.66 47.909">
 
<style>
.menu_icon{fill:#fff;}
</style>
  
  <path id="offers" class="menu_icon" d="M53.272,1539.847l-2.905-2.829a1.385,1.385,0,0,0-1.172-.383l-4,.57a4.133,4.133,0,0,1-4.667-3.414l-.7-4.007a1.4,1.4,0,0,0-.725-1l-3.569-1.907a4.173,4.173,0,0,1-1.783-5.522l1.775-3.656a1.409,1.409,0,0,0,0-1.24l-1.774-3.656a4.171,4.171,0,0,1,1.782-5.522l3.569-1.908a1.4,1.4,0,0,0,.725-1l.7-4.008a4.134,4.134,0,0,1,4.667-3.413l4,.569a1.383,1.383,0,0,0,1.172-.383l2.905-2.829a4.11,4.11,0,0,1,5.767,0l2.905,2.829a1.385,1.385,0,0,0,1.172.383l4-.57a4.134,4.134,0,0,1,4.666,3.414l.7,4.008a1.4,1.4,0,0,0,.725,1l3.569,1.907a4.173,4.173,0,0,1,1.782,5.523l-1.775,3.655a1.417,1.417,0,0,0,0,1.241l1.775,3.656a4.172,4.172,0,0,1-1.782,5.522l-3.569,1.907a1.4,1.4,0,0,0-.725,1l-.7,4.007a4.132,4.132,0,0,1-4.666,3.414l-4-.57a1.388,1.388,0,0,0-1.172.383l-2.905,2.829a4.109,4.109,0,0,1-5.767,0Zm-1-4.815,2.9,2.829a1.391,1.391,0,0,0,1.951,0l2.9-2.829A4.1,4.1,0,0,1,63.5,1533.9l4,.57a1.4,1.4,0,0,0,1.579-1.155l.7-4.008a4.148,4.148,0,0,1,2.141-2.967l3.57-1.907a1.412,1.412,0,0,0,.6-1.869l-1.774-3.655a4.173,4.173,0,0,1,0-3.668l1.774-3.655a1.412,1.412,0,0,0-.6-1.869l-3.57-1.907a4.144,4.144,0,0,1-2.141-2.967l-.7-4.007a1.4,1.4,0,0,0-1.579-1.156l-4,.571a4.107,4.107,0,0,1-3.465-1.134l-2.9-2.829a1.391,1.391,0,0,0-1.951,0l-2.905,2.829a4.106,4.106,0,0,1-3.464,1.134l-4-.571a1.4,1.4,0,0,0-1.579,1.156l-.7,4.007a4.149,4.149,0,0,1-2.141,2.967l-3.57,1.907a1.412,1.412,0,0,0-.6,1.869l1.775,3.655a4.178,4.178,0,0,1,0,3.668l-1.775,3.656a1.411,1.411,0,0,0,.6,1.868l3.57,1.907a4.149,4.149,0,0,1,2.141,2.967l.7,4.008a1.4,1.4,0,0,0,1.579,1.155l4-.57a4.109,4.109,0,0,1,3.465,1.133Zm4.337-10.589a5.032,5.032,0,1,1,5.032,5.066A5.055,5.055,0,0,1,56.613,1524.443Zm2.745,0a2.287,2.287,0,1,0,2.287-2.3A2.3,2.3,0,0,0,59.358,1524.443Zm-13.229,2.726a1.388,1.388,0,0,1,0-1.953l18.113-18.237a1.365,1.365,0,0,1,1.94,0,1.388,1.388,0,0,1,0,1.954l-18.113,18.236a1.365,1.365,0,0,1-1.94,0Zm-.494-17.463a5.032,5.032,0,1,1,5.032,5.066A5.055,5.055,0,0,1,45.635,1509.706Zm2.745,0a2.287,2.287,0,1,0,2.287-2.3A2.3,2.3,0,0,0,48.38,1509.706Z" transform="translate(-33.325 -1493.119)"/>
</svg>
