<svg xmlns="http://www.w3.org/2000/svg" width="22" height="22" viewBox="0 0 49.81 49.931">
 <style>
      .menu_icon {
        fill: #fff;
      }
    </style>
  <path id="ratings_reviews" class="menu_icon" d="M33.989,1436.677a.743.743,0,0,1-.266-.824l1.342-4.169-3.513-2.577a.741.741,0,0,1-.265-.825.731.731,0,0,1,.695-.509h4.343l1.342-4.169a.729.729,0,0,1,1.39,0l1.343,4.169h4.342a.731.731,0,0,1,.695.509.74.74,0,0,1-.266.825l-3.513,2.577L43,1435.853a.747.747,0,0,1-.21.779.733.733,0,0,1-.915.045l-3.513-2.576-3.513,2.576a.726.726,0,0,1-.86,0Zm4.8-4.085,2.123,1.556-.811-2.518a.743.743,0,0,1,.266-.825l2.123-1.556H39.867a.732.732,0,0,1-.695-.51l-.811-2.519-.811,2.519a.733.733,0,0,1-.7.51H34.232l2.123,1.556a.741.741,0,0,1,.266.825l-.811,2.518,2.122-1.556a.731.731,0,0,1,.86,0Zm12.969,4.068a.749.749,0,0,1-.243-.807l1.342-4.169-3.513-2.577a.741.741,0,0,1-.265-.825.731.731,0,0,1,.695-.509h4.342l1.342-4.169a.729.729,0,0,1,1.39,0l1.343,4.169h4.342a.732.732,0,0,1,.7.509.74.74,0,0,1-.266.825l-3.513,2.577,1.342,4.169a.747.747,0,0,1-.21.779.733.733,0,0,1-.915.045l-3.513-2.576-3.514,2.576a.732.732,0,0,1-.882-.017Zm4.825-4.068,2.123,1.556-.811-2.518a.741.741,0,0,1,.265-.825l2.122-1.556H57.661a.733.733,0,0,1-.7-.51l-.81-2.519-.811,2.519a.732.732,0,0,1-.695.51H52.025l2.123,1.556a.743.743,0,0,1,.265.825l-.811,2.518,2.122-1.556a.731.731,0,0,1,.86,0Zm12.969,4.068a.75.75,0,0,1-.243-.808l1.342-4.168-3.513-2.577a.741.741,0,0,1-.265-.825.731.731,0,0,1,.695-.509h4.342l1.343-4.169a.728.728,0,0,1,1.39,0l1.343,4.169h4.342a.732.732,0,0,1,.7.509.741.741,0,0,1-.265.825l-3.514,2.577,1.342,4.169a.748.748,0,0,1-.21.779.733.733,0,0,1-.915.045l-3.513-2.577-3.514,2.577a.733.733,0,0,1-.882-.017Zm4.825-4.068,2.123,1.556-.811-2.518a.741.741,0,0,1,.266-.825l2.122-1.556H75.455a.731.731,0,0,1-.695-.51l-.811-2.519-.811,2.519a.732.732,0,0,1-.695.51H69.819l2.123,1.556a.744.744,0,0,1,.266.825l-.811,2.518,2.122-1.556a.725.725,0,0,1,.859,0ZM51.9,1421.657a6.877,6.877,0,0,1-3.737-1.039,2.7,2.7,0,0,1-2.017.91H40.2a2.728,2.728,0,0,1-2.712-2.738v-15a2.727,2.727,0,0,1,2.712-2.737h5.944a2.683,2.683,0,0,1,1.765.661c1.357-.614,5.749-2.831,7.591-6.55.717-1.449,1.219-5.342,1.355-6.762a1.564,1.564,0,0,1,1.727-1.507,3.9,3.9,0,0,1,2.659,1.578c.809,1.066,1.656,3.166,1.1,7.124a13.683,13.683,0,0,1-1.028,3.733H73.068a42.308,42.308,0,0,0,3.313,8.555,3.353,3.353,0,0,1-1.859,3.005,3.359,3.359,0,0,1-1.032,5.212A3.349,3.349,0,0,1,71,1421.657Zm6.448-33.274a.08.08,0,0,0-.028.063.612.612,0,0,1,0,.07c-.021.216-.515,5.31-1.506,7.31-1.98,4-6.367,6.345-8.079,7.139a2.732,2.732,0,0,1,.128.827v15a2.745,2.745,0,0,1-.047.5,5.374,5.374,0,0,0,3.088.894H71a1.868,1.868,0,0,0,0-3.736H69.437a.738.738,0,0,1,0-1.476h2.6a1.868,1.868,0,0,0,0-3.736H70a.738.738,0,0,1,0-1.476h3.073a1.868,1.868,0,0,0,0-3.736H70a.738.738,0,0,1,0-1.476h3.072a1.868,1.868,0,0,0,0-3.736H60.054a.745.745,0,0,1-.565-1.205,9.541,9.541,0,0,0,1.4-4.213c.488-3.451-.17-5.177-.808-6.018a2.453,2.453,0,0,0-1.676-1.01H58.4A.074.074,0,0,0,58.346,1388.383Zm-19.4,15.409v15a1.257,1.257,0,0,0,1.25,1.262h5.944a1.237,1.237,0,0,0,.937-.43.743.743,0,0,1-.046-.256V1402.91a1.237,1.237,0,0,0-.891-.38H40.2A1.257,1.257,0,0,0,38.951,1403.792Zm2.005,12.5a2.217,2.217,0,1,1,2.217,2.237A2.23,2.23,0,0,1,40.956,1416.29Zm1.462,0a.755.755,0,1,0,.755-.762A.76.76,0,0,0,42.418,1416.29Z" transform="translate(-31.251 -1386.887)"/>
</svg>
