<svg xmlns="http://www.w3.org/2000/svg" width="22" height="22" viewBox="0 0 39.583 49.99">
<style>
      .menu_icon {
        fill: #fff;
      }
    </style>
 <path id="restaurant" class="menu_icon" d="M44.093,922.39a4.526,4.526,0,0,1-4.522-4.522V894.2a4.751,4.751,0,0,1-4.154-4.677v-1.84a1.02,1.02,0,0,1,.006-.117c0-.01,0-.02,0-.03a.862.862,0,0,1,.016-.086c0-.011.005-.022.008-.032a.791.791,0,0,1,.025-.082l.011-.031c.012-.029.024-.058.039-.086,0,0,0-.011.006-.016l.008-.014v0l4.029-7.754V876.92a4.526,4.526,0,0,1,4.522-4.521H66.3a4.528,4.528,0,0,1,4.522,4.521v2.514l4.052,7.755,0,0,.006.012s0,.009.006.014c.014.029.027.058.04.088l.011.03c.01.027.018.055.025.083,0,.01.006.022.009.032.006.028.012.058.015.086,0,.011,0,.02,0,.031a1.008,1.008,0,0,1,.007.117v1.841a4.751,4.751,0,0,1-4.178,4.679v23.663A4.527,4.527,0,0,1,66.3,922.39Zm-2.438-28.364V917.87a2.441,2.441,0,0,0,2.438,2.438H66.3a2.441,2.441,0,0,0,2.438-2.438V894.018a4.807,4.807,0,0,1-2.28-1.559,4.829,4.829,0,0,1-7.5,0,4.83,4.83,0,0,1-7.5,0,4.829,4.829,0,0,1-7.5,0A4.81,4.81,0,0,1,41.655,894.026Zm25.807-6.62a1.064,1.064,0,0,1,.039.282v1.84a2.709,2.709,0,0,0,5.416,0v-.8l-.678-2.083-3.09-5.915H65.583Zm-7.555-.76L60,888.728v.8a2.71,2.71,0,0,0,5.417,0v-1.7l-2-7.1H59.352Zm-7.407,1.09v1.791a2.71,2.71,0,0,0,5.417,0v-.8l-.1-2.083-.554-5.915h-4.1Zm-7.167-1.09L45,888.728v.8a2.71,2.71,0,0,0,5.417,0v-1.84c0-.031,0-.065,0-.1l.644-6.859H47Zm-8.059.594-.068,2.287a2.948,2.948,0,0,0,3,2.636,2.763,2.763,0,0,0,2.806-2.636l2.568-9.219H40.988Zm4.381-10.319v1.727H68.738V876.92a2.441,2.441,0,0,0-2.438-2.438H44.093A2.441,2.441,0,0,0,41.655,876.92Zm3.125,38.1a1.042,1.042,0,0,1-1.042-1.041V898.945A1.042,1.042,0,0,1,44.78,897.9H65.495a1.041,1.041,0,0,1,1.041,1.041v15.036a1.041,1.041,0,0,1-1.041,1.041Zm1.041-2.083H64.453V899.987H45.821Z" transform="translate(-35.417 -872.4)"/>
</svg>
