<svg xmlns="http://www.w3.org/2000/svg" width="22" height="22" viewBox="0 0 47.917 49.991">
<style>
      .menu_icon {
        fill: #fff;
      }
    </style>
 
  <path id="riders" class="menu_icon" d="M66.206,1024.454a4.221,4.221,0,0,1-4.144-3.334h-13.7a4.221,4.221,0,0,1-4.145,3.334H36.6a.854.854,0,0,1-.34-.07q-.266-.041-.527-.106a5.865,5.865,0,0,1-3.639-2.659,5.719,5.719,0,0,1-.663-4.416l4.55-17.946a4.22,4.22,0,0,1,4.1-3.13h.008l10.049-.771v-2.81a7.434,7.434,0,0,1-2.538-5.585v-8.332a4.2,4.2,0,0,1,4.229-4.165h6.768a4.2,4.2,0,0,1,4.229,4.165v4.166h0v4.166a7.433,7.433,0,0,1-2.539,5.585v2.809l10.115.773a4.227,4.227,0,0,1,4.036,3.122l4.552,17.953a5.71,5.71,0,0,1,.179,1.418,5.873,5.873,0,0,1-5.009,5.763.854.854,0,0,1-.338.069Zm0-1.667h6.767v-5a.846.846,0,0,0-1.691,0v2.5a.838.838,0,0,1-.846.833H63.813A2.539,2.539,0,0,0,66.206,1022.787Zm-28.761-5v5h6.767a2.539,2.539,0,0,0,2.393-1.667H39.983a.839.839,0,0,1-.846-.833v-2.5a.846.846,0,0,0-1.692,0Zm37.22,0v4.757a4.179,4.179,0,0,0,2.81-3.923,4.136,4.136,0,0,0-.127-1.013l-1.432-5.648H71.282v3.471a2.559,2.559,0,0,1,.845-.143A2.522,2.522,0,0,1,74.665,1017.788Zm-41.594-.182a4.085,4.085,0,0,0,.473,3.155,4.177,4.177,0,0,0,2.208,1.783v-4.756a2.522,2.522,0,0,1,2.538-2.5,2.561,2.561,0,0,1,.846.143v-3.471H34.5Zm36.518,1.849v-12.5H59.439v4.163a.839.839,0,0,1-.846.832H51.825a.839.839,0,0,1-.845-.832v-4.163H40.829v12.5H47.6Zm5.9-9.166-2.7-10.629a2.53,2.53,0,0,0-2.456-1.869h0l-10.576-.8-2.508,2.472H70.436a.839.839,0,0,1,.846.833v10Zm-22.821,0h5.076v-3.33H52.671Zm-13.534,0v-10a.84.84,0,0,1,.846-.833H53.167l-2.51-2.472-10.507.8a2.558,2.558,0,0,0-2.53,1.877l-2.693,10.623Zm30.453-5v-4.165H59.439v4.165Zm-11.843,0v-4.165H52.671v4.165Zm-6.767,0v-4.165H40.829v4.165Zm4.229-6.177,3.383-3.334v-2.1a7.711,7.711,0,0,1-6.767,0v2.1Zm-5.921-12.153a5.922,5.922,0,0,0,11.843,0v-2.5H55.209v2.5h.846v1.666H54.363a.839.839,0,0,1-.846-.833v-3.333H49.288Zm11.7-4.166a2.541,2.541,0,0,0-2.393-1.666H51.825a2.54,2.54,0,0,0-2.392,1.666Zm-2.393-3.333a4.25,4.25,0,0,1,2.538.836v-1.669a2.522,2.522,0,0,0-2.538-2.5H51.825a2.522,2.522,0,0,0-2.537,2.5V980.3a4.249,4.249,0,0,1,2.537-.835Zm7.618,38.328v-1.67H67.9v1.67Zm-3.39,0v-1.67h1.69v1.67Z" transform="translate(-31.249 -974.463)"/>
</svg>
