<svg xmlns="http://www.w3.org/2000/svg" width="22" height="22" viewBox="0 0 45.833 45.825">
<style>
      .menu_icon {
        fill: #fff;
      }
    </style>
   <path id="settings" class="menu_icon" d="M53.517,514.13a2.362,2.362,0,0,1-2.36-2.359v-4.288a1.646,1.646,0,0,0-2.81-1.164l-3.031,3.031a2.415,2.415,0,0,1-3.338,0l-3.865-3.864a2.361,2.361,0,0,1,0-3.338l3.032-3.03a1.646,1.646,0,0,0-1.165-2.81H35.693a2.362,2.362,0,0,1-2.36-2.36v-5.464a2.362,2.362,0,0,1,2.36-2.36h4.288a1.645,1.645,0,0,0,1.165-2.809l-3.032-3.031a2.36,2.36,0,0,1,0-3.337l3.865-3.864a2.417,2.417,0,0,1,3.338,0l3.031,3.03a1.646,1.646,0,0,0,2.81-1.164v-4.287a2.362,2.362,0,0,1,2.36-2.36h5.467a2.362,2.362,0,0,1,2.359,2.36v4.287a1.646,1.646,0,0,0,2.811,1.164l3.03-3.03a2.417,2.417,0,0,1,3.338,0l3.865,3.864a2.36,2.36,0,0,1,0,3.337l-3.031,3.031a1.645,1.645,0,0,0,1.165,2.809h4.288a2.362,2.362,0,0,1,2.36,2.36v5.465a2.361,2.361,0,0,1-2.36,2.359H72.519a1.646,1.646,0,0,0-1.165,2.81l3.031,3.03a2.361,2.361,0,0,1,0,3.338l-3.865,3.864a2.417,2.417,0,0,1-3.338,0l-3.03-3.031a1.647,1.647,0,0,0-2.811,1.164v4.288a2.362,2.362,0,0,1-2.359,2.359ZM50.791,504.4a3.292,3.292,0,0,1,2.064,3.089v4.288a.664.664,0,0,0,.662.662h5.467a.663.663,0,0,0,.661-.662v-4.288a3.344,3.344,0,0,1,5.709-2.363l3.031,3.031a.663.663,0,0,0,.937,0l3.865-3.865a.663.663,0,0,0,0-.937l-3.032-3.029a3.344,3.344,0,0,1,2.365-5.708h4.288a.664.664,0,0,0,.662-.662v-5.465a.661.661,0,0,0-.662-.661H72.519a3.344,3.344,0,0,1-2.365-5.709l3.032-3.03a.663.663,0,0,0,0-.937l-3.865-3.864a.663.663,0,0,0-.937,0l-3.031,3.03a3.344,3.344,0,0,1-5.709-2.364v-4.287a.663.663,0,0,0-.662-.662H53.517a.664.664,0,0,0-.662.662v4.287a3.344,3.344,0,0,1-5.709,2.363l-3.03-3.03a.663.663,0,0,0-.937,0l-3.865,3.864a.662.662,0,0,0,0,.937l3.031,3.031a3.343,3.343,0,0,1-2.364,5.708H35.693a.662.662,0,0,0-.662.661v5.465a.664.664,0,0,0,.662.662h4.288a3.342,3.342,0,0,1,2.364,5.707l-3.031,3.03a.662.662,0,0,0,0,.937l3.865,3.864a.663.663,0,0,0,.937,0l3.03-3.032a3.3,3.3,0,0,1,2.344-.987A3.4,3.4,0,0,1,50.791,504.4Zm-2.18-13.177a7.639,7.639,0,1,1,7.639,7.637A7.646,7.646,0,0,1,48.611,491.218Zm1.7,0a5.941,5.941,0,1,0,5.942-5.94A5.949,5.949,0,0,0,50.308,491.218Z" transform="translate(-33.333 -468.305)"/>
</svg>
