<svg xmlns="http://www.w3.org/2000/svg" width="77.06" height="77.1" viewBox="0 0 77.06 77.1">
  <defs>
    <style>
      .cls-1 {
        fill: #1976d2;
      }

      .cls-2 {
        fill: #fff;
      }
    </style>
  </defs>
  <g id="user_icon" transform="translate(-2929.5 -27.09)">
    <ellipse id="Ellipse_16_copy_3" data-name="Ellipse 16 copy 3" class="cls-1" cx="38.53" cy="38.55" rx="38.53" ry="38.55" transform="translate(2929.5 27.09)"/>
    <path id="Shape_1" data-name="Shape 1" class="cls-2" d="M2946.068,85.724a1.416,1.416,0,0,1-.586-.689,16.331,16.331,0,0,1-.574-4.958v-.033a2.048,2.048,0,0,0,.012-.274c.067-2.156.213-7.224,5.1-8.856.033-.011.067-.022.113-.032a32.529,32.529,0,0,0,9.346-4.138,1.547,1.547,0,0,1,2.117.362,1.45,1.45,0,0,1-.371,2.057,35.856,35.856,0,0,1-10.283,4.565c-2.623.909-2.916,3.634-2.994,6.131,0,.1-.012.185-.012.273a18.326,18.326,0,0,0,.237,3.383c1.835,1.007,9.031,4.5,19.865,4.5,10.877,0,18.029-3.48,19.853-4.487a19.376,19.376,0,0,0,.237-3.382,2.1,2.1,0,0,1-.011-.274c-.078-2.5-.372-5.222-3-6.131a35.534,35.534,0,0,1-10.281-4.564,1.451,1.451,0,0,1-.372-2.058,1.547,1.547,0,0,1,2.118-.361,32.933,32.933,0,0,0,9.347,4.137c.033.011.078.022.112.032,4.887,1.621,5.034,6.689,5.1,8.856,0,.1.011.186.011.274v.032a17.135,17.135,0,0,1-.54,4.947,1.472,1.472,0,0,1-.586.689c-.338.209-8.435,5.233-21.982,5.233S2946.406,85.944,2946.068,85.724Zm22.016-19.145h-.248a10.486,10.486,0,0,1-7.927-3.339c-4.336-4.75-3.615-12.894-3.536-13.672.282-5.878,3.164-8.67,5.529-9.972a12.836,12.836,0,0,1,6.059-1.5h.192a12.787,12.787,0,0,1,6.058,1.543c2.343,1.3,5.18,4.093,5.462,9.928.079.778.8,8.922-3.536,13.672a10.531,10.531,0,0,1-7.939,3.339Zm-8.694-16.825c0,.022-.011.055-.011.087-.012.066-.778,7.542,2.793,11.439a7.458,7.458,0,0,0,5.788,2.343h.113a7.483,7.483,0,0,0,5.8-2.343c3.581-3.919,2.793-11.362,2.782-11.439a.2.2,0,0,1-.012-.087c-.349-7.421-5.518-8.626-8.558-8.691h-.136C2965.494,41.063,2959.762,41.906,2959.39,49.755Z"/>
  </g>
</svg>
