<svg xmlns="http://www.w3.org/2000/svg" width="116.26" height="116.26" viewBox="0 0 116.26 116.26">
  <g id="orders" transform="translate(-1893.94 -308.56)">
    <circle id="Ellipse_16_copy_4" data-name="Ellipse 16 copy 4" cx="58.13" cy="58.13" r="58.13" transform="translate(1893.94 308.56)" fill="#93cf73"/>
    <path id="Forma_1" data-name="Forma 1" d="M1929.472,392.956a3.569,3.569,0,0,1-3.578-3.2l-2.511-24.879h-1.836a3.221,3.221,0,0,1-3.235-3.2v-5.929a3.221,3.221,0,0,1,3.235-3.2h10.229a.929.929,0,0,1,.192-.217l11.713-9.715a.943.943,0,0,1,1.32.115.917.917,0,0,1-.116,1.3l-10.262,8.512h29.262l-10.263-8.512a.924.924,0,0,1-.116-1.307.949.949,0,0,1,1.322-.115l11.714,9.715a.935.935,0,0,1,.192.219h10.226a3.221,3.221,0,0,1,3.235,3.2v5.929a3.219,3.219,0,0,1-3.235,3.2h-1.831l-2.51,24.879a3.576,3.576,0,0,1-3.584,3.2Zm-1.714-3.387a1.707,1.707,0,0,0,1.712,1.533h39.565a1.709,1.709,0,0,0,1.714-1.533l2.492-24.7h-47.975Zm49.2-26.551a1.354,1.354,0,0,0,1.36-1.344v-5.929a1.353,1.353,0,0,0-1.36-1.345h-55.412a1.353,1.353,0,0,0-1.359,1.345v5.929a1.352,1.352,0,0,0,1.359,1.344h52.731ZM1961.9,384.454V371.012a.938.938,0,0,1,1.876,0v13.442a.938.938,0,0,1-1.876,0Zm-9.057,0V371.012a.937.937,0,0,1,1.875,0v13.442a.937.937,0,0,1-1.875,0Zm-9.058,0V371.012a.938.938,0,0,1,1.876,0v13.442a.938.938,0,0,1-1.876,0Zm-9.057,0V371.012a.937.937,0,0,1,1.875,0v13.442a.937.937,0,0,1-1.875,0Z" fill="#fff"/>
    <path id="Forma_1_copy_15" data-name="Forma 1 copy 15" d="M1931.348,392.956a3.569,3.569,0,0,1-3.578-3.2l-2.51-24.879h-1.837a3.22,3.22,0,0,1-3.234-3.2v-5.929a3.22,3.22,0,0,1,3.234-3.2h10.229a.926.926,0,0,1,.192-.217l11.713-9.715a.943.943,0,0,1,1.32.115.918.918,0,0,1-.116,1.3l-10.262,8.512h29.262l-10.263-8.512a.922.922,0,0,1-.116-1.307.949.949,0,0,1,1.322-.115l11.714,9.715a.934.934,0,0,1,.192.219h10.227a3.221,3.221,0,0,1,3.235,3.2v5.929a3.219,3.219,0,0,1-3.235,3.2H1977l-2.509,24.879a3.576,3.576,0,0,1-3.583,3.2Zm-1.715-3.387a1.707,1.707,0,0,0,1.713,1.533h39.565a1.708,1.708,0,0,0,1.714-1.533l2.492-24.7h-47.975Zm49.2-26.551a1.354,1.354,0,0,0,1.36-1.344v-5.929a1.354,1.354,0,0,0-1.36-1.345h-55.413a1.353,1.353,0,0,0-1.359,1.345v5.929a1.352,1.352,0,0,0,1.359,1.344h52.731Zm-15.058,21.435V371.012a.937.937,0,0,1,1.875,0v13.442a.937.937,0,0,1-1.875,0Zm-9.058,0V371.012a.938.938,0,0,1,1.876,0v13.442a.938.938,0,0,1-1.876,0Zm-9.057,0V371.012a.937.937,0,0,1,1.875,0v13.442a.937.937,0,0,1-1.875,0Zm-9.058,0V371.012a.938.938,0,0,1,1.876,0v13.442a.938.938,0,0,1-1.876,0Z" fill="#fff"/>
  </g>
</svg>
