<svg xmlns="http://www.w3.org/2000/svg" width="116.26" height="116.26" viewBox="0 0 116.26 116.26">
  <g id="dash_comission" transform="translate(-2837.14 -308.56)">
    <circle id="Ellipse_16_copy_2" data-name="Ellipse 16 copy 2" cx="58.13" cy="58.13" r="58.13" transform="translate(2837.14 308.56)" fill="#e58843"/>
    <path id="Forma_1" data-name="Forma 1" d="M2869.448,395.856a3.387,3.387,0,0,1-3.352-3.4V366.1a3.387,3.387,0,0,1,3.352-3.4h9.219a3.387,3.387,0,0,1,3.353,3.4v2.7c1.57-.434,4.411-1.206,6.636-1.736,1.09-.259,2.013-.46,2.663-.547a4.286,4.286,0,0,1,.516-.039,4.563,4.563,0,0,1,.692.065c.245.038.522.09.833.155.622.13,1.383.313,2.253.536,1.737.445,3.905,1.048,6.158,1.7,2.136.615,4.348,1.269,6.339,1.866l8.817-5.479.093-.052a5.5,5.5,0,0,1,6.839,1.429l2.3-1.386.077-.043a5.507,5.507,0,0,1,6.96,1.578,5.463,5.463,0,0,1,2.271-.513,5.679,5.679,0,0,1,5.635,5.718,5.574,5.574,0,0,1-2.3,4.6c-2.348,1.642-7.142,5.068-12.265,8.538a143.663,143.663,0,0,1-14.364,8.859,17.861,17.861,0,0,1-2.875,1.181,4.832,4.832,0,0,1-1.3.212,17.983,17.983,0,0,1-2.3-.239c-.985-.146-2.187-.353-3.532-.6-2.687-.495-5.942-1.151-9.091-1.807-4.655-.97-9.071-1.937-11.06-2.377v2.047a3.387,3.387,0,0,1-3.353,3.4Zm-.838-29.76v26.358a.855.855,0,0,0,.838.85h9.22a.855.855,0,0,0,.838-.85V366.1a.856.856,0,0,0-.838-.85h-9.22A.856.856,0,0,0,2868.61,366.1Zm40.017,26.668a10.53,10.53,0,0,0,1.152-.418,35.741,35.741,0,0,0,3.28-1.643c2.52-1.4,5.594-3.331,8.719-5.39,6.255-4.123,12.718-8.753,15.606-10.771a3.036,3.036,0,0,0,1.21-2.5,3.181,3.181,0,0,0-.914-2.24,3.09,3.09,0,0,0-2.206-.928,3.033,3.033,0,0,0-1.381.35l-.308.185a1.244,1.244,0,0,1-.492.387,1.206,1.206,0,0,1-.286.081l-9.852,5.928a1.247,1.247,0,0,1-1.723-.445,1.286,1.286,0,0,1,.439-1.748l9.111-5.482a3.074,3.074,0,0,0-2.213-.948,3.036,3.036,0,0,0-1.382.35l-7.825,4.708a1.248,1.248,0,0,1-1.722-.446,1.286,1.286,0,0,1,.439-1.748l3.37-2.028a3,3,0,0,0-3.477-.489l-6.822,4.24,2.158.661a10.95,10.95,0,0,1,2.983,1.4,6.377,6.377,0,0,1,2.207,2.511,5.528,5.528,0,0,1,.517,2.366,6.12,6.12,0,0,1-6.073,6.161h-.062l-3.437-.342-11.108-1.446a1.276,1.276,0,0,1,.321-2.531l11.072,1.443,3.244.322a3.523,3.523,0,0,0,2.487-1.056,3.614,3.614,0,0,0,1.042-2.552,2.922,2.922,0,0,0-.273-1.271,3.393,3.393,0,0,0-.775-1.037,7.482,7.482,0,0,0-2.876-1.526c-3.326-1.024-11.557-3.525-16.778-4.909-1.733-.46-3.154-.8-3.848-.9a2.856,2.856,0,0,0-.315-.036,3.279,3.279,0,0,0-.4.049c-.227.037-.523.094-.861.165-.68.144-1.535.346-2.442.573-1.813.453-3.836,1-5.161,1.364-.386.106-.708.2-.954.265V387.8c.5.11,1.3.287,2.339.514,1.787.392,4.241.924,6.9,1.488,5.322,1.127,11.5,2.379,14.8,2.87a16.653,16.653,0,0,0,1.932.212A2.6,2.6,0,0,0,2908.626,392.764Zm-3.785-32.621v-1.107a7.635,7.635,0,0,1-4.414-1.706,5.928,5.928,0,0,1-2.066-4.574,1.257,1.257,0,1,1,2.514,0,3.342,3.342,0,0,0,1.176,2.627,5.092,5.092,0,0,0,2.789,1.077v-8.375c-.165-.041-.33-.085-.5-.128a12.145,12.145,0,0,1-3.615-1.463,5.294,5.294,0,0,1-1.625-1.662,5.454,5.454,0,0,1-.743-2.873,6.159,6.159,0,0,1,.918-3.223,6.231,6.231,0,0,1,3.11-2.525,8.643,8.643,0,0,1,2.452-.532v-1.051a1.257,1.257,0,1,1,2.515,0v1.121a9.49,9.49,0,0,1,3.093.859,5.785,5.785,0,0,1,3.386,5.35,1.257,1.257,0,1,1-2.514,0,3.37,3.37,0,0,0-.306-1.453,3.16,3.16,0,0,0-.922-1.138,5.787,5.787,0,0,0-2.737-1.052V346.1c.173.046.342.085.515.135a11.1,11.1,0,0,1,3.652,1.638,5.607,5.607,0,0,1,1.6,1.825,6.872,6.872,0,0,1,.026,6.043,5.4,5.4,0,0,1-1.9,2.031,8.91,8.91,0,0,1-3.889,1.216v1.154a1.257,1.257,0,1,1-2.514,0Zm2.514-3.722a8.778,8.778,0,0,0,1.04-.189,4.718,4.718,0,0,0,1.835-.852,2.747,2.747,0,0,0,.7-.85,3.72,3.72,0,0,0,.386-1.775,3.579,3.579,0,0,0-.517-2.02,3.692,3.692,0,0,0-1.407-1.208,10.611,10.611,0,0,0-2.042-.785Zm-4.073-17.825a3.9,3.9,0,0,0-1.429.925,3.548,3.548,0,0,0-.978,2.438,3.024,3.024,0,0,0,.284,1.379,2.533,2.533,0,0,0,.758.887,8.787,8.787,0,0,0,2.923,1.223v-7.2A6.136,6.136,0,0,0,2903.282,338.6Z" fill="#fff"/>
  </g>
</svg>
