<svg xmlns="http://www.w3.org/2000/svg" width="116.32" height="116.12" viewBox="0 0 116.32 116.12">
  <g id="revenue" transform="translate(-2365.69 -305.01)">
    <ellipse id="Ellipse_16_copy" data-name="Ellipse 16 copy" cx="58.16" cy="58.06" rx="58.16" ry="58.06" transform="translate(2365.69 305.01)" fill="#6ac9e6"/>
    <path id="Shape_1" data-name="Shape 1" d="M2406.964,399.857a14.984,14.984,0,0,1-15.022-14.9,45.045,45.045,0,0,1,3.84-18.112,55.471,55.471,0,0,1,8.39-13.344,63.332,63.332,0,0,1,10.6-10.016l-8.875-13.3a1.919,1.919,0,0,1,.226-2.4c3.017-3.073,6.1-4.513,9.714-4.513,2.856,0,5.809.864,9.649,2.256a2.461,2.461,0,0,0,.92.16,11.926,11.926,0,0,0,3.938-1.168,16.353,16.353,0,0,1,6.26-1.632,9.682,9.682,0,0,1,6.906,3.072,1.882,1.882,0,0,1,.356,2.272l-8.23,15.136a62.314,62.314,0,0,1,10.747,10.129,54.972,54.972,0,0,1,8.391,13.344,45.058,45.058,0,0,1,3.84,18.112,14.985,14.985,0,0,1-15.023,14.9Zm.1-43.809c-7.455,8.929-11.247,18.657-11.247,28.913a11.116,11.116,0,0,0,11.15,11.056h36.628a11.068,11.068,0,0,0,11.118-11.056c0-10.272-3.775-19.984-11.246-28.913a57.926,57.926,0,0,0-10.957-10.175h-14.49A59.088,59.088,0,0,0,2407.061,356.047Zm2.969-26.655,8.438,12.64h13.489l7.745-14.272a5.15,5.15,0,0,0-3.114-1.056,13.179,13.179,0,0,0-4.776,1.344,14.385,14.385,0,0,1-5.422,1.456,6.6,6.6,0,0,1-2.243-.384c-3.437-1.264-6.018-2.031-8.31-2.031A8.477,8.477,0,0,0,2410.03,329.392Zm13.715,58.016v-2.736h-3.808a1.92,1.92,0,1,1,0-3.839h7.955a2.9,2.9,0,1,0,0-5.792h-4.438a6.736,6.736,0,1,1,0-13.472h.274V358.9a1.936,1.936,0,0,1,3.873,0v2.672h3.663a1.92,1.92,0,1,1,0,3.839h-7.81a2.9,2.9,0,1,0,0,5.792h4.438a6.736,6.736,0,1,1,.1,13.472h-.371v2.736a1.936,1.936,0,0,1-3.873,0Z" fill="#fff"/>
  </g>
</svg>
