<svg xmlns="http://www.w3.org/2000/svg" width="116.26" height="116.26" viewBox="0 0 116.26 116.26">
  <g id="customers" transform="translate(-1424.17 -308.56)">
    <circle id="Ellipse_16_copy_2" data-name="Ellipse 16 copy 2" cx="58.13" cy="58.13" r="58.13" transform="translate(1424.17 308.56)" fill="#f381a8"/>
    <path id="Shape_1" data-name="Shape 1" d="M1514.26,391.76v-7.72a1.18,1.18,0,0,1,2.36,0v7.72a1.18,1.18,0,0,1-2.36,0Zm-20.17,0V386.6a1.18,1.18,0,1,1,2.36,0v5.16a1.18,1.18,0,1,1-2.36,0Zm-27.79,0V386.6a1.18,1.18,0,1,1,2.36,0v5.16a1.18,1.18,0,0,1-2.36,0Zm-20.209,0v-6.13a1.18,1.18,0,0,1,2.36,0v6.13a1.18,1.18,0,0,1-2.36,0Zm73.223-.018v-9.9a2.649,2.649,0,0,0-1.891-2.542l-4.878-1.413a2.826,2.826,0,0,1-.5-.2l-2.994,3.036v11.026a1.181,1.181,0,1,1-2.362,0V380.716l-3.016-3.056a6.4,6.4,0,0,1-1.1.4l-.292.085a6.376,6.376,0,0,1,1.747,4.381v9.215a1.181,1.181,0,1,1-2.363,0v-9.215a3.933,3.933,0,0,0-2.548-3.687l-7.662-2.824-3.19,4.85a2.43,2.43,0,0,1-1.793,1.091c-.082.008-.163.013-.244.013a2.418,2.418,0,0,1-1.725-.726l-1.946-1.973v12.472a1.181,1.181,0,1,1-2.363,0V379.27l-1.946,1.973a2.421,2.421,0,0,1-1.726.725c-.081,0-.162,0-.243-.012a2.43,2.43,0,0,1-1.793-1.091l-3.19-4.85-7.663,2.823a3.934,3.934,0,0,0-2.547,3.687v9.215a1.181,1.181,0,1,1-2.363,0v-9.215a6.371,6.371,0,0,1,.949-3.343l-1.287-.652-1.372,1.323a4.919,4.919,0,0,1-6.847,0l-1.373-1.323-3.947,2a2.633,2.633,0,0,0-1.442,2.364v8.845a1.181,1.181,0,1,1-2.363,0V382.9a5.019,5.019,0,0,1,2.748-4.506l3.17-1.607a9.071,9.071,0,0,1-4.53-3.709,1.211,1.211,0,0,1,0-1.071c.851-1.726.955-4.891,1.038-7.433.028-.846.053-1.646.1-2.358.4-5.743,4.71-10.074,10.019-10.074s9.616,4.331,10.019,10.074c.049.712.076,1.512.1,2.358.083,2.542.185,5.707,1.038,7.433a1.216,1.216,0,0,1,0,1.071,9.071,9.071,0,0,1-4.525,3.712l1.141.579a6.126,6.126,0,0,1,1.46-.776l7.268-2.678a1.207,1.207,0,0,1,.322-.917l2.2-2.343v-4.027a14.713,14.713,0,0,1-5.052-11.166v-2.7a13.99,13.99,0,0,1-1.264-5.82v-2.561a11.375,11.375,0,0,1,11.285-11.438h17.681a1.19,1.19,0,0,1,1.182,1.2v12.8a14.006,14.006,0,0,1-1.263,5.82V355.9a14.148,14.148,0,0,1-4.368,10.216c-.223.211-.452.41-.685.6v3.934l2.2,2.343a1.208,1.208,0,0,1,.322.916l6.885,2.539,2.38-.689c.976-.284.976-.393.976-.661v-1.73a9.383,9.383,0,0,1-3.788-7.553V363.86l-.6-1.227a6.411,6.411,0,0,1-.659-2.825v-.071a7.557,7.557,0,0,1,7.5-7.6h11.366a1.19,1.19,0,0,1,1.182,1.2v6.17a7.718,7.718,0,0,1-.791,3.4l-.472.957v2.278a8.869,8.869,0,0,1-2.659,6.372,8.959,8.959,0,0,1-1.129.939V375.1a.5.5,0,0,0,.357.481l4.878,1.413a5.05,5.05,0,0,1,3.6,4.845v9.9a1.181,1.181,0,1,1-2.362,0Zm-36.1-15.188,2.956,3a.074.074,0,0,0,.066.023.073.073,0,0,0,.06-.037l3.674-5.585-1.183-1.259Zm-10.438-2.6,3.673,5.585a.077.077,0,0,0,.06.037.073.073,0,0,0,.066-.024l2.956-3-5.573-3.861Zm-21.8,1.94a2.5,2.5,0,0,1-.287,1.169l1.1,1.058a2.581,2.581,0,0,0,3.593,0l1.1-1.058a2.509,2.509,0,0,1-.287-1.17v-1.275a8.659,8.659,0,0,1-5.215,0Zm54.275-.792a3.328,3.328,0,0,1-.073.711l2.68,2.717,2.694-2.73a2.9,2.9,0,0,1-.085-.7v-.482a8.669,8.669,0,0,1-2.6.4c-.091,0-.181,0-.272,0a8.176,8.176,0,0,1-2.339-.419Zm-30.281-4.6,6.4,4.432,6.4-4.432V368.31a13.538,13.538,0,0,1-6.385,1.586q-.463,0-.93-.031a13.151,13.151,0,0,1-5.479-1.6Zm-16.418,2.957v1.427a8.527,8.527,0,0,0,3.791-2.47,13.344,13.344,0,0,1-.672-2.86A8.836,8.836,0,0,1,1458.56,373.454Zm-13.73-1.043a8.478,8.478,0,0,0,3.791,2.467v-1.435a8.9,8.9,0,0,1-3.118-3.9A13.407,13.407,0,0,1,1444.829,372.411Zm55.377-12.674v.071a3.994,3.994,0,0,0,.409,1.755l.73,1.479a1.214,1.214,0,0,1,.124.535v2.238a6.666,6.666,0,0,0,6.2,6.8,6.306,6.306,0,0,0,4.652-1.827,6.481,6.481,0,0,0,1.942-4.654v-2.56a1.214,1.214,0,0,1,.124-.535l.6-1.209a5.29,5.29,0,0,0,.542-2.327v-4.973H1505.34A5.175,5.175,0,0,0,1500.206,359.737Zm-53.013,6.4a6.39,6.39,0,0,0,12.714,1.006c-1.911-4.264-6.824-4.844-8.351-4.919l-1.773,1.864a1.17,1.17,0,0,1-1.67.031,1.209,1.209,0,0,1-.031-1.693l2.131-2.24a1.177,1.177,0,0,1,.818-.366,14.664,14.664,0,0,1,4.492.722,10.626,10.626,0,0,1,5.835,4.322c0-.072-.005-.143-.007-.214-.027-.823-.052-1.6-.1-2.267a8.954,8.954,0,0,0-2.388-5.583,7.271,7.271,0,0,0-10.549,0,8.949,8.949,0,0,0-2.389,5.583c-.047.667-.072,1.445-.1,2.268,0,.1-.006.205-.01.308a1.146,1.146,0,0,1,.193-.017A1.188,1.188,0,0,1,1447.194,366.138Zm21.469-21.764v2.561a11.611,11.611,0,0,0,1.146,5.032,1.208,1.208,0,0,1,.117.52v2.971c0,6.346,4.693,11.625,10.684,12.019a11.248,11.248,0,0,0,7.664-2.318l.021-.014a11.932,11.932,0,0,0,.906-.779,11.568,11.568,0,0,0,3.622-8.468v-3.409a1.211,1.211,0,0,1,.117-.521,11.6,11.6,0,0,0,1.146-5.031v-11.6h-16.5A8.994,8.994,0,0,0,1468.663,344.374Zm42.463,17.714c-1.867-.947-5.721-1.154-7.049-1.154a1.2,1.2,0,0,1,0-2.395c.218,0,5.362.016,8.105,1.407a1.2,1.2,0,0,1,.528,1.607,1.171,1.171,0,0,1-1.585.535ZM1471.352,349.5v-2.758a2.448,2.448,0,0,1,2.072-2.449c3.812-.582,13.158-1.448,17.626,3.08a1.208,1.208,0,0,1,0,1.693,1.169,1.169,0,0,1-1.67,0c-1.579-1.6-4.246-2.537-7.929-2.785a36.849,36.849,0,0,0-7.673.38.08.08,0,0,0-.062.081V349.5a1.181,1.181,0,1,1-2.363,0Z" fill="#fff"/>
  </g>
</svg>
