<svg xmlns="http://www.w3.org/2000/svg" width="22" height="22" viewBox="0 0 50 48.998">
  <defs>
    <style>
      .cls-1 {
        fill: #fff;
      }
    </style>
  </defs>
  <path id="Forma_1" data-name="Forma 1" class="cls-1" d="M38.363,924.945v-6.351H32V875.948H76.545v7.259H82v41.738Zm1.818-6.351v4.537h40v-38.11h-40Zm-6.363-1.815h4.545V883.207H74.727v-5.444H33.818Zm25.454-2.722v-9.074H50.181a.907.907,0,1,1,0-1.814h9.091V894.1a.909.909,0,0,1,1.819,0v9.074h9.091a.907.907,0,1,1,0,1.814H61.091v9.074a.909.909,0,0,1-1.819,0Z" transform="translate(-32 -875.948)"/>
</svg>
