<svg xmlns="http://www.w3.org/2000/svg" width="22" height="28" viewBox="0 0 62.581 72.935">
  <defs>
    <style>
      .cls-1 {
        fill: #1976d2;
      }
    </style>
  </defs>
  <path id="bell" class="cls-1" d="M2828.453,96.226c-2.005-.274-4.113-.606-6.4-1.01l-12.286-2.173a1.307,1.307,0,0,1-1.015-.909,1.353,1.353,0,0,1,.322-1.34,29.786,29.786,0,0,0,8.681-21.6V57.257c.051-8.379,5.794-14.829,11.463-17.507a25.36,25.36,0,0,1,4.073-1.507v-.877a6.474,6.474,0,1,1,12.945,0v.761a25.522,25.522,0,0,1,4.523,1.614A19.3,19.3,0,0,1,2861.8,57.265V69.193a29.991,29.991,0,0,0,9.091,21.6,1.348,1.348,0,0,1,.321,1.337,1.3,1.3,0,0,1-1.015.909l-12.285,2.174c-2.276.4-4.373.734-6.371,1.005a12.67,12.67,0,0,1-23.087.006ZM2840,101.018a10.3,10.3,0,0,0,8.31-4.4,77.7,77.7,0,0,1-8.324.464,78.277,78.277,0,0,1-8.292-.46A10.3,10.3,0,0,0,2840,101.018Zm-5.132-60.431c-.012,0-.027,0-.04,0a22.787,22.787,0,0,0-4.527,1.569c-4.923,2.326-9.913,7.9-9.957,15.106V69.193a32.374,32.374,0,0,1-7.767,21.654l9.917,1.755c2.5.442,4.782.8,6.941,1.081h.012c.94.122,1.856.229,2.751.32l.083.008c.8.08,1.59.149,2.367.2.162.013.322.023.483.034q1.024.069,2.028.108c.143.007.288.014.43.019,1.609.055,3.2.055,4.808,0,.139,0,.28-.011.419-.017q1.019-.039,2.055-.11c.151-.011.3-.02.453-.032.8-.058,1.6-.126,2.429-.211l.029,0c.9-.093,1.823-.2,2.771-.324h.008c2.151-.281,4.428-.637,6.912-1.076l9.912-1.751a32.716,32.716,0,0,1-8.172-21.657V57.259a16.852,16.852,0,0,0-9.53-15.107,23.106,23.106,0,0,0-4.951-1.656.079.079,0,0,0-.025,0,.079.079,0,0,1-.025,0,23,23,0,0,0-9.814.089Zm1.012-3.22v.3a25.142,25.142,0,0,1,7.767-.062v-.241a3.885,3.885,0,1,0-7.767,0Zm-10.365,21.218a1.314,1.314,0,0,1-1.287-1.336c.039-6.205,4.859-10.132,7.7-11.475a19.35,19.35,0,0,1,16.141,0,1.337,1.337,0,0,1,.638,1.756,1.282,1.282,0,0,1-1.716.654,16.766,16.766,0,0,0-13.98,0c-2.286,1.081-6.164,4.208-6.195,9.084a1.309,1.309,0,0,1-1.294,1.319Z" transform="translate(-2808.691 -30.735)"/>
</svg>
