<svg xmlns="http://www.w3.org/2000/svg" width="22" height="22" viewBox="0 0 49.812 37.493">
   <style>
      .menu_icon {
        fill: #fff;
      }
    </style>
  <path id="customers" class="menu_icon" d="M79.6,1225.752v-6.189a1.653,1.653,0,0,0-1.168-1.588l-3.013-.883a1.705,1.705,0,0,1-.311-.127l-1.85,1.9v6.89a.73.73,0,1,1-1.459,0v-6.89l-1.863-1.91a3.936,3.936,0,0,1-.68.251l-.18.052a4.011,4.011,0,0,1,1.079,2.738v5.758a.73.73,0,1,1-1.459,0v-5.758a2.457,2.457,0,0,0-1.574-2.3l-4.734-1.765-1.97,3.031a1.5,1.5,0,0,1-1.107.681,1.387,1.387,0,0,1-.15.007,1.484,1.484,0,0,1-1.067-.453l-1.2-1.233v7.793a.73.73,0,1,1-1.459,0v-7.793l-1.2,1.233a1.487,1.487,0,0,1-1.066.453,1.377,1.377,0,0,1-.15-.007,1.5,1.5,0,0,1-1.108-.682l-1.969-3.03L45.2,1217.69a2.457,2.457,0,0,0-1.573,2.3v5.759a.73.73,0,1,1-1.46,0v-5.759a4.023,4.023,0,0,1,.587-2.088l-.795-.408-.848.827a3.016,3.016,0,0,1-4.23,0l-.848-.827-2.439,1.25a1.648,1.648,0,0,0-.89,1.478v5.526a.73.73,0,1,1-1.46,0v-5.526a3.14,3.14,0,0,1,1.7-2.816l1.958-1a5.622,5.622,0,0,1-2.8-2.317.767.767,0,0,1,0-.67,13.614,13.614,0,0,0,.641-4.644c.017-.53.033-1.029.064-1.474A6.426,6.426,0,0,1,39,1201.006a6.426,6.426,0,0,1,6.189,6.295c.031.445.047.944.064,1.473a13.616,13.616,0,0,0,.641,4.645.767.767,0,0,1,0,.67,5.621,5.621,0,0,1-2.8,2.318l.7.362a3.766,3.766,0,0,1,.9-.484l4.489-1.675a.757.757,0,0,1,.2-.572l1.359-1.463v-2.516a9.238,9.238,0,0,1-3.12-6.977v-1.689a8.821,8.821,0,0,1-.78-3.637v-1.6a7.068,7.068,0,0,1,6.971-7.148H64.746a.739.739,0,0,1,.73.748v8a8.839,8.839,0,0,1-.78,3.637v1.964a8.881,8.881,0,0,1-2.7,6.382c-.137.131-.278.257-.422.379v2.458l1.359,1.463a.757.757,0,0,1,.2.572l4.253,1.587,1.471-.431c.6-.176.6-.246.6-.412v-1.081a5.886,5.886,0,0,1-2.341-4.72v-1.222l-.373-.766a4.046,4.046,0,0,1-.406-1.766v-.044a4.7,4.7,0,0,1,4.631-4.748H77.99a.738.738,0,0,1,.73.748v3.856a4.86,4.86,0,0,1-.489,2.123l-.291.6v1.423a5.55,5.55,0,0,1-2.341,4.568v1.031a.312.312,0,0,0,.221.3l3.014.883a3.151,3.151,0,0,1,2.227,3.027v6.189a.73.73,0,1,1-1.46,0Zm-22.3-9.49,1.826,1.872a.048.048,0,0,0,.041.015.045.045,0,0,0,.037-.023l2.27-3.49-.731-.787Zm-6.449-1.626,2.269,3.49a.048.048,0,0,0,.038.022.044.044,0,0,0,.04-.014l1.826-1.872-3.442-2.413Zm-13.464,1.212a1.579,1.579,0,0,1-.177.73l.679.661a1.581,1.581,0,0,0,2.219,0l.679-.661a1.585,1.585,0,0,1-.178-.731v-.8a5.3,5.3,0,0,1-3.222,0Zm33.53-.495a2.187,2.187,0,0,1-.045.445l1.655,1.7,1.664-1.706a1.8,1.8,0,0,1-.052-.437v-.3a5.269,5.269,0,0,1-1.609.25c-.057,0-.112,0-.168,0a4.958,4.958,0,0,1-1.444-.261Zm-18.707-2.875,3.952,2.769,3.951-2.769v-1.367a8.288,8.288,0,0,1-3.944.992q-.285,0-.574-.02a8.055,8.055,0,0,1-3.385-1Zm-10.142,1.848v.893a5.267,5.267,0,0,0,2.342-1.544,8.506,8.506,0,0,1-.416-1.787A5.5,5.5,0,0,1,42.07,1214.325Zm-8.482-.652a5.241,5.241,0,0,0,2.342,1.542v-.9A5.54,5.54,0,0,1,34,1211.881,8.438,8.438,0,0,1,33.589,1213.673Zm34.209-7.919v.044a2.507,2.507,0,0,0,.253,1.1l.451.925a.76.76,0,0,1,.076.334v1.4a4.146,4.146,0,0,0,3.829,4.251,3.867,3.867,0,0,0,2.873-1.142,4.067,4.067,0,0,0,1.2-2.908v-1.6a.751.751,0,0,1,.077-.334l.368-.756a3.342,3.342,0,0,0,.335-1.454V1202.5H70.97A3.216,3.216,0,0,0,67.8,1205.754Zm-32.748,4a3.945,3.945,0,0,0,7.854.629c-1.181-2.665-4.216-3.027-5.16-3.073l-1.1,1.165a.717.717,0,0,1-1.031.019.761.761,0,0,1-.019-1.058l1.317-1.4a.723.723,0,0,1,.5-.228,8.922,8.922,0,0,1,2.776.451,6.576,6.576,0,0,1,3.6,2.7c0-.044,0-.088,0-.132-.017-.515-.033-1-.062-1.417a5.615,5.615,0,0,0-1.475-3.488,4.455,4.455,0,0,0-6.516,0,5.615,5.615,0,0,0-1.475,3.488c-.029.417-.045.9-.061,1.417,0,.064,0,.128-.006.193a.658.658,0,0,1,.12-.011A.739.739,0,0,1,35.05,1209.753Zm13.262-13.6v1.6a7.323,7.323,0,0,0,.707,3.144.772.772,0,0,1,.073.327v1.856a7.344,7.344,0,0,0,6.6,7.51,6.9,6.9,0,0,0,4.735-1.449l.012-.009c.194-.151.381-.314.561-.486a7.27,7.27,0,0,0,2.237-5.291v-2.13a.765.765,0,0,1,.072-.326,7.327,7.327,0,0,0,.707-3.145v-7.25H53.824A5.59,5.59,0,0,0,48.312,1196.155ZM76.48,1225.77v-4.84a.73.73,0,1,1,1.46,0v4.84a.73.73,0,0,1-1.46,0Zm-12.461,0v-3.24a.73.73,0,0,1,1.461,0v3.24a.73.73,0,0,1-1.461,0Zm-17.169,0v-3.24a.73.73,0,0,1,1.46,0v3.24a.73.73,0,0,1-1.46,0Zm-12.48,0v-3.85a.73.73,0,1,1,1.46,0v3.85a.73.73,0,0,1-1.46,0Zm40.173-18.547a12.315,12.315,0,0,0-4.355-.721.749.749,0,0,1,0-1.5,13.91,13.91,0,0,1,5.008.879.756.756,0,0,1,.326,1,.727.727,0,0,1-.653.414A.713.713,0,0,1,74.543,1207.223Zm-24.57-7.869v-1.723a1.525,1.525,0,0,1,1.28-1.53c2.354-.364,8.128-.9,10.888,1.925a.76.76,0,0,1,0,1.057.716.716,0,0,1-1.031,0c-.976-1-2.624-1.586-4.9-1.741a22.5,22.5,0,0,0-4.74.238.05.05,0,0,0-.039.05v1.723a.73.73,0,1,1-1.459,0Z" transform="translate(-31.249 -1189.007)"/>
</svg>
