<svg xmlns="http://www.w3.org/2000/svg" width="22" height="22" viewBox="0 0 47.917 31.244">
 <style>
      .menu_icon {
        fill: #fff;
      }
    </style>
  <path id="dashboard" class="menu_icon" d="M33.34,401.649a1,1,0,0,1-.951-.679,22.945,22.945,0,0,1-1.139-7.133C31.25,380.917,42,370.4,55.208,370.4s23.959,10.512,23.959,23.433a22.945,22.945,0,0,1-1.139,7.133,1,1,0,0,1-.952.679Zm.742-1.952H76.335a20.914,20.914,0,0,0,.765-4.883H74.175a.977.977,0,1,1,0-1.953h2.945a20.948,20.948,0,0,0-2.428-8.9l-2.558,1.445a1.019,1.019,0,0,1-.5.13,1,1,0,0,1-.864-.488.964.964,0,0,1,.365-1.335l2.551-1.441a21.869,21.869,0,0,0-6.658-6.512l-1.473,2.5a1.009,1.009,0,0,1-1.363.357.963.963,0,0,1-.365-1.334l1.476-2.5a22.172,22.172,0,0,0-9.1-2.375v2.879a1,1,0,0,1-2,0v-2.879a22.172,22.172,0,0,0-9.1,2.375l1.476,2.5a.963.963,0,0,1-.364,1.334,1.017,1.017,0,0,1-.5.131,1,1,0,0,1-.864-.489l-1.474-2.5a21.876,21.876,0,0,0-6.657,6.512l2.552,1.441a.964.964,0,0,1,.364,1.335,1,1,0,0,1-.864.488,1.019,1.019,0,0,1-.5-.13l-2.558-1.445a20.961,20.961,0,0,0-2.428,8.9h2.945a.977.977,0,1,1,0,1.953H33.315A20.963,20.963,0,0,0,34.081,399.7Zm19.13-5.859a1.917,1.917,0,0,1,.587-1.383.489.489,0,0,1,.045-.04l11.686-10.05a1.017,1.017,0,0,1,1.365.042.962.962,0,0,1,.044,1.336l-10.274,11.43a2.049,2.049,0,0,1-1.457.618A1.977,1.977,0,0,1,53.212,393.838Z" transform="translate(-31.25 -370.405)"/>
</svg>
