<svg xmlns="http://www.w3.org/2000/svg" width="22" height="22" viewBox="0 0 43.669 39.574">
<style>
      .menu_icon {
        fill: #fff;
      }
    </style>
  
  <path id="orders" class="menu_icon" d="M61.27,1124.841a3.842,3.842,0,1,1,3.841,3.761A3.807,3.807,0,0,1,61.27,1124.841Zm2.145,0a1.7,1.7,0,1,0,1.7-1.661A1.681,1.681,0,0,0,63.415,1124.84Zm-15.616,0a3.842,3.842,0,1,1,3.84,3.761A3.806,3.806,0,0,1,47.8,1124.841Zm2.145,0a1.7,1.7,0,1,0,1.7-1.661A1.681,1.681,0,0,0,49.944,1124.84Zm-3.974-5.458a2.143,2.143,0,0,1-2.1-1.677l-5.188-24.663-4.707-2a1.043,1.043,0,0,1-.556-1.382,1.081,1.081,0,0,1,1.411-.544l4.705,2a2.108,2.108,0,0,1,1.246,1.5l.674,3.206h33.4a2.153,2.153,0,0,1,1.661.774,2.058,2.058,0,0,1,.438,1.75l-3,14.256a2.14,2.14,0,0,1-2.1,1.677H45.338l.632,3H71.656a1.051,1.051,0,1,1,0,2.1Zm-1.073-7.2H71.854l3-14.256H41.9Zm6.631-3.352a1.05,1.05,0,1,1,0-2.1H65.22a1.05,1.05,0,1,1,0,2.1Zm-.836-5.453a1.051,1.051,0,1,1,0-2.1H66.056a1.051,1.051,0,1,1,0,2.1Z" transform="translate(-33.329 -1089.028)"/>
</svg>
