<svg xmlns="http://www.w3.org/2000/svg" width="22" height="22" viewBox="0 0 45.69 43.774">
  <style>
      .menu_icon {
        fill: #fff;
      }
    </style>
  <g id="reports_analytics" transform="translate(-33.294 -1286.876)">
    <path id="Composite_Path" data-name="Composite Path" class="menu_icon" d="M60.565,1308.009H51.723a.746.746,0,0,0-.737.755V1329.9a.746.746,0,0,0,.737.755h8.842a.746.746,0,0,0,.737-.755v-21.132a.746.746,0,0,0-.737-.755Zm-.737,21.132H52.46v-19.623h7.368Zm0,0Z"/>
    <path id="Composite_Path-2" data-name="Composite Path" class="menu_icon" d="M76.038,1300.461H67.2a.746.746,0,0,0-.736.755V1329.9a.746.746,0,0,0,.736.755h8.842a.746.746,0,0,0,.737-.755v-28.679a.746.746,0,0,0-.737-.755Zm-.737,28.68H67.933v-27.17H75.3Zm0,0Z"/>
    <path id="Composite_Path-3" data-name="Composite Path" class="menu_icon" d="M45.092,1309.518H36.25a.746.746,0,0,0-.737.755V1329.9a.746.746,0,0,0,.737.755h8.842a.745.745,0,0,0,.736-.755v-19.623a.745.745,0,0,0-.736-.755Zm-.737,19.623H36.987v-18.114h7.368Zm0,0Z"/>
    <path id="Composite_Path-4" data-name="Composite Path" class="menu_icon" d="M78.769,1287.1a.724.724,0,0,0-1.042,0l-9.426,9.656-3.531-3.618a.725.725,0,0,0-1.042,0L53.2,1303.922l-7.584-7.768a.723.723,0,0,0-1.042,0l-11.052,11.321a.767.767,0,0,0-.2.734.745.745,0,0,0,.526.539.724.724,0,0,0,.717-.206l10.532-10.787,7.584,7.769a.725.725,0,0,0,1.041,0l10.531-10.788,3.531,3.617a.725.725,0,0,0,1.042,0l9.947-10.188a.769.769,0,0,0,0-1.068Zm0,0Z"/>
  </g>
</svg>
