<svg xmlns="http://www.w3.org/2000/svg"  viewBox="0 0 20.97 21">
  <defs>
    <style>
      .cls-1 {
        fill: #ffffff;
        fill-rule: evenodd;
      }
    </style>
  </defs>
  <path id="Forma_1" data-name="Forma 1" class="cls-1" d="M2853.65,317.063L2841,329.734a0.754,0.754,0,0,0-.21.364l-1.09,4.188a0.8,0.8,0,0,0,.78,1,0.872,0.872,0,0,0,.2-0.026l4.18-1.088a0.761,0.761,0,0,0,.36-0.208l12.65-12.67h0l2.55-2.551a0.8,0.8,0,0,0,0-1.13l-3.1-3.1a0.787,0.787,0,0,0-1.12,0l-2.55,2.55h0Zm-9.4,15.618-2.66.691,0.69-2.662,11.93-11.953,1.97,1.971Zm12.51-16.475,1.97,1.971-1.42,1.421-1.97-1.971Z" transform="translate(-2839.69 -314.281)"/>
</svg>
