<svg xmlns="http://www.w3.org/2000/svg" width="116.22" height="116.2" viewBox="0 0 116.22 116.2">
  <g id="Group_80" data-name="Group 80" transform="translate(-954.44 -306.44)">
    <ellipse id="Ellipse_16" data-name="Ellipse 16" cx="58.11" cy="58.1" rx="58.11" ry="58.1" transform="translate(954.44 306.44)" fill="#a0a8de"/>
    <path id="Forma_1" data-name="Forma 1" d="M991.459,404.645a43.787,43.787,0,0,1-16.647-16.354,1.64,1.64,0,0,1,2.839-1.643,40.513,40.513,0,0,0,15.4,15.129,1.64,1.64,0,0,1-1.592,2.868Zm24.754-6.68v-.317a31.525,31.525,0,0,1-8.967-.252v.569a5.139,5.139,0,0,1-10.279,0V357.348a5.149,5.149,0,0,1-3.5-4.871v-6.564a28.076,28.076,0,0,0-.769,40.4,1.64,1.64,0,0,1-2.324,2.316,31.361,31.361,0,0,1,3.093-47.009V331.482a1.64,1.64,0,0,1,3.281,0V339.4a31.328,31.328,0,0,1,3.718-1.867v-6.052a1.64,1.64,0,0,1,3.281,0v4.883a30.876,30.876,0,0,1,3.718-.851v-4.032a1.64,1.64,0,0,1,3.28,0v3.665c.616-.036,1.235-.056,1.859-.056a31.545,31.545,0,0,1,6.95.776,21.412,21.412,0,0,1,4.185-5.59,1.641,1.641,0,0,1,2.753,1.205v59.423a28.176,28.176,0,0,0,14.216-24.432,27.885,27.885,0,0,0-2.487-11.576,1.64,1.64,0,0,1,2.988-1.354,31.123,31.123,0,0,1,2.779,12.929,31.461,31.461,0,0,1-17.5,28.149v3.344a5.14,5.14,0,0,1-10.28,0Zm.753-40.474a135.883,135.883,0,0,0-.986,16.089h1.874a1.64,1.64,0,0,1,1.641,1.64v22.745a1.859,1.859,0,0,0,3.718,0V336.09C1020.281,340.76,1018.148,348.038,1016.966,357.492Zm-20.218-5.015a1.861,1.861,0,0,0,1.859,1.859,1.64,1.64,0,0,1,1.64,1.641v41.99a1.859,1.859,0,0,0,3.718,0v-41.99a1.64,1.64,0,0,1,1.641-1.641,1.861,1.861,0,0,0,1.859-1.859v-1.859H996.748Zm14-14.043v14.043a5.149,5.149,0,0,1-3.5,4.871v36.715a28.3,28.3,0,0,0,8.968.283V376.862h-1.859a1.64,1.64,0,0,1-1.64-1.6c-.029-1.112-.5-22.363,5.389-36.353a28.376,28.376,0,0,0-5.5-.541C1011.979,338.37,1011.36,338.394,1010.745,338.434Zm-7,1.368v7.535h3.718v-8.494A27.97,27.97,0,0,0,1003.747,339.8Zm-7,3.481v4.054h3.718V341.13A28.06,28.06,0,0,0,996.748,343.283Zm55.33,14.782a40.188,40.188,0,0,0-10.894-20.076,1.64,1.64,0,0,1,2.324-2.316,43.472,43.472,0,0,1,11.78,21.712,1.64,1.64,0,1,1-3.209.68Zm-18.045-9.775a28.415,28.415,0,0,0-3.245-3.245,1.64,1.64,0,1,1,2.123-2.5,31.584,31.584,0,0,1,3.622,3.623,1.64,1.64,0,1,1-2.5,2.123Zm2.106-14.6c-1.078-.776-2.209-1.507-3.359-2.172a1.64,1.64,0,1,1,1.642-2.84c1.244.72,2.466,1.509,3.631,2.348a1.64,1.64,0,1,1-1.915,2.663Z" fill="#fff"/>
  </g>
</svg>
